<mxfile host="app.diagrams.net" modified="2023-03-19T20:06:38.927Z" agent="5.0 (Windows)" etag="oYAhyFFW5oLcYMP0rOz6" version="21.0.6" type="github">
  <diagram id="R2lEEEUBdFMjLlhIrx00" name="Page-1">
    <mxGraphModel dx="880" dy="462" grid="1" gridSize="10" guides="1" tooltips="1" connect="1" arrows="1" fold="1" page="1" pageScale="1" pageWidth="850" pageHeight="1100" math="0" shadow="0" extFonts="Permanent Marker^https://fonts.googleapis.com/css?family=Permanent+Marker">
      <root>
        <mxCell id="0" />
        <mxCell id="1" parent="0" />
        <mxCell id="-qurwwcGrLZtLTsoVj94-1" value="&#xa;&lt;p id=&quot;docs-internal-guid-76694edb-7fff-93b9-c214-b59c8f9c56e0&quot; style=&quot;line-height:1.38;text-align: justify;margin-top:0pt;margin-bottom:0pt;&quot; dir=&quot;ltr&quot;&gt;&lt;span style=&quot;font-size: 11pt; font-family: Arial; color: rgb(0, 0, 0); background-color: transparent; font-weight: 400; font-style: normal; font-variant: normal; text-decoration: none; vertical-align: baseline;&quot;&gt;Exercicio6&lt;/span&gt;&lt;/p&gt;&lt;p style=&quot;line-height:1.38;text-align: justify;margin-top:0pt;margin-bottom:0pt;&quot; dir=&quot;ltr&quot;&gt;&lt;span style=&quot;font-size: 11pt; font-family: Arial; color: rgb(0, 0, 0); background-color: transparent; font-weight: 400; font-style: normal; font-variant: normal; text-decoration: none; vertical-align: baseline;&quot;&gt;Gerenciamento de provas e alunos&lt;/span&gt;&lt;/p&gt;&lt;p style=&quot;line-height:1.38;text-align: justify;margin-top:0pt;margin-bottom:0pt;&quot; dir=&quot;ltr&quot;&gt;&lt;span style=&quot;font-size: 11pt; font-family: Arial; color: rgb(0, 0, 0); background-color: transparent; font-weight: 400; font-style: normal; font-variant: normal; text-decoration: none; vertical-align: baseline;&quot;&gt;Um professor deseja armazenar informações sobre os alunos da disciplina que ministra tais como:&amp;nbsp;&lt;/span&gt;&lt;/p&gt;&lt;p style=&quot;line-height:1.38;text-align: justify;margin-top:0pt;margin-bottom:0pt;&quot; dir=&quot;ltr&quot;&gt;&lt;span style=&quot;font-size: 11pt; font-family: Arial; color: rgb(0, 0, 0); background-color: transparent; font-weight: 400; font-style: normal; font-variant: normal; text-decoration: none; vertical-align: baseline;&quot;&gt;informações pessoais de cada um (RA, nome, email, telefone, etc.) e as atividades realizadas para definição da nota final na disciplina.&lt;/span&gt;&lt;/p&gt;&lt;p style=&quot;line-height:1.38;text-align: justify;margin-top:0pt;margin-bottom:0pt;&quot; dir=&quot;ltr&quot;&gt;&lt;span style=&quot;font-size: 11pt; font-family: Arial; color: rgb(0, 0, 0); background-color: transparent; font-weight: 400; font-style: normal; font-variant: normal; text-decoration: none; vertical-align: baseline;&quot;&gt;a) Devem ser armazenados o nome da atividade, a data em que ela ocorreu e o peso na nota final.&lt;/span&gt;&lt;/p&gt;&lt;p style=&quot;line-height:1.38;text-align: justify;margin-top:0pt;margin-bottom:0pt;&quot; dir=&quot;ltr&quot;&gt;&lt;span style=&quot;font-size: 11pt; font-family: Arial; color: rgb(0, 0, 0); background-color: transparent; font-weight: 400; font-style: normal; font-variant: normal; text-decoration: none; vertical-align: baseline;&quot;&gt;b) Sabe-se que uma atividade pode ser realizada somente uma vez por cada aluno.&lt;/span&gt;&lt;/p&gt;&lt;p style=&quot;line-height:1.38;text-align: justify;margin-top:0pt;margin-bottom:0pt;&quot; dir=&quot;ltr&quot;&gt;&lt;span style=&quot;font-size: 11pt; font-family: Arial; color: rgb(0, 0, 0); background-color: transparent; font-weight: 400; font-style: normal; font-variant: normal; text-decoration: none; vertical-align: baseline;&quot;&gt;c) As atividades podem ser trabalhos e provas.&lt;/span&gt;&lt;/p&gt;&lt;p style=&quot;line-height:1.38;text-align: justify;margin-top:0pt;margin-bottom:0pt;&quot; dir=&quot;ltr&quot;&gt;&lt;span style=&quot;font-size: 11pt; font-family: Arial; color: rgb(0, 0, 0); background-color: transparent; font-weight: 400; font-style: normal; font-variant: normal; text-decoration: none; vertical-align: baseline;&quot;&gt;d) Para prova armazenar o número de questões e se foi teste ou dissertativa.&lt;/span&gt;&lt;/p&gt;&lt;p style=&quot;line-height:1.38;text-align: justify;margin-top:0pt;margin-bottom:0pt;&quot; dir=&quot;ltr&quot;&gt;&lt;span style=&quot;font-size: 11pt; font-family: Arial; color: rgb(0, 0, 0); background-color: transparent; font-weight: 400; font-style: normal; font-variant: normal; text-decoration: none; vertical-align: baseline;&quot;&gt;O professor pretende obter relatórios sobre as provas e trabalhos realizados pelos alunos em cada mês de aula.&lt;/span&gt;&lt;/p&gt;&#xa;&#xa;" style="text;html=1;strokeColor=none;fillColor=none;align=center;verticalAlign=middle;whiteSpace=wrap;rounded=0;" vertex="1" parent="1">
          <mxGeometry x="25" y="110" width="800" height="30" as="geometry" />
        </mxCell>
        <mxCell id="-qurwwcGrLZtLTsoVj94-2" value="" style="shape=image;verticalLabelPosition=bottom;labelBackgroundColor=default;verticalAlign=top;aspect=fixed;imageAspect=0;image=data:image/png,iVBORw0KGgoAAAANSUhEUgAABB0AAAFDCAYAAAB2uXa+AABaWklEQVR4Xuzdf2wUZ3748QYcw2G+JAoy2CEm4YdDaJCorOREUZGgcBBMdbmqKsoZ/1FhqUfJD7ijBzkq0hBKkZUgxVEExqikQTkZYpf0pAQlkKrhohJyJVXV2CqubHzKD4IBw+EcBIzD89Xnc53p+PHsej2e2d2Zfb+klZ+ZZ57ZtXc9z/N89pnn+T0DAAAAAAAQgd+zdwAAAAAAAISBoAMAAAAAAIgEQQcAAAAAABAJgg4AAAAAACASBB0AAAAAAEAkCDoAAAAAAIBIEHQAAAAAAACRIOgAAAAAAAAiQdABAAAAAABEgqADAAAAAACIBEEHAAAAAAAQCYIOAAAAAAAgEgQdAAAAAABAJAg6AAAAAACASBB0AAAAAAAAkSDoAAAAAAAAIkHQAQAAAAAARIKgAwAAAAAAiARBBwAAAAAAEAmCDgAAAAAAIBIEHQAAAAAAQCQIOgAAAAAAgEgQdAAAAAAAAJEg6AAAAAAAACJB0AEAAAAAAESCoAMAAAAAAIgEQQcAAAAAABAJgg4AAAAAACASBB0AAAAAAEAkCDoAAAAAAIBIEHQAAAAAAACRIOgAAAAAAAAiQdABAAAAAABEgqADAAAAAACIBEEHAAAAAAAQCYIOAAAAAAAgEgQdAAAAAABAJAg6AAAAAACASBB0AAAAAAAAkSDoAAAAAAAAIkHQAQAAAAAARIKgAwAAAAAAiARBBwAAAAAAEAmCDgAAAAAAIBIEHQAAAAAAQCQIOgAAAAAAgEgQdAAAAAAAAJEg6AAAAAAAACJB0AEAAAAAAESCoAMAAAAAAIgEQQcAAAAAABAJgg4AAAAAACASBB0AAAAAAEAkCDoAAAAAAIBIEHQAAAAAAACRIOgAjMKHH35oampqTEVFhfm93/s9/Snbsh8AAAAACh1BByCAW7dumfXr12ugIdVD8uU4AAAAAChUBB2AAIYLOHgDD6k4x/hJlwcAAAAAcUGvBhghuXXCDi6kewS51YKgAwAAAIAkoFcDjNAPf/jDIYGFdA853o83sHDhwgWzbNkyM336dNPY2EjQAQAAAEAi0KsBRmjatGlDAgvpHnK8H29gYe3atZreu3fvoFs3AAAAACDO6NUAIzRu3LghgYV0Dznejzew4AQyLl++rKMeCDoAAAAASAJ6NShIkydPHhIcyPRRVFQ0ZF+6RyYjHZxAxsDAgD68eQAAAAAQV/RqUJBG06GPYk6HiooKTV+6dMl89dVXg/IAAAAAIK7o1aAgjaZDH9bqFd7Awrp16zT96quvmg0bNgzKAwAAAIC4oleDgjTaDr13ssd0DzkuFW9gQUY4LF26VG/7kMADQQek8u2335pDhw6ZlStXmvLycv2clJWV6eonDQ0Npq+vzy4CAAAA5Ay9GhSk0Xbob926NWzgQfLlOCAsvb29ZsmSJWbhwoXm8OHDeiuOkJ/vvPOOqamp0UBEa2urVRIAAADIjdH1vICYGm3QwSG3TkhHz5mTQX7KdqpbKoCgZISDBBw2btyo6VROnz5tHnjgAbNv3z47CwAAAMi6cHpeQMyEFXQAsqW5uVlHOKQLODjOnj1rSktLTVtbm50FAAAAZBU9LxQkgg6Im+rqatPS0mLvTqm+vt7U1dXZu01/f7/52c9+Zu677z4zceJEs3z5cvPrX/9a8+R2oM2bN5upU6fqUq9btmxxbxFybht67bXXdO4RmYNE5iIBAAAA0qHnhYJE0AFxI4EAZw6HTHR1dZn777/f3m1eeOEF/fzv2bPHvP/++5qWERRi586dur13715z4MABTW/btk3znKCDrLQiZSX9ox/9yHtqAAAAYAh6XihIBB0QN8XFxTpKIVM3btww48ePt3eb2bNn6+f/8uXLdpaprKzUPBnB8PXXX2t65syZmucEHXp6eszFixc1LaMlAAAAgHToeaEgEXRA1OQWBKejPtqHBAOmTJmiHf5MdXd368SmNglEyDkHBgbsLDfP+ygqKtI8Z1tut5CHpMeNG2edAQAAABiMnhcKknSYgCiF/RlbtmyZLouZKblFYs2aNfZud6SDjFawye0Yknf16lU7yw06fPHFF+5Ih+nTp9uHAQAAAIOE2yoGYiLsDuFIyOoDhw4dMitXrjTl5eX6WsrKyrRT2dDQYPr6+uwiiKGwP2Py2fALIvi5efOmmTVrlvnggw/sLPP888/ra3v11VfNL3/5S00vWLBA87Zu3arbr7zyijlx4oSmFy9erHlO0EHmcZDlOCX91FNPeU8NAAAADBFuqxiIibA7hJnq7e01S5Ys0Yn7Dh8+7E4MKD/lW+yamhoNRLS2tlolETdhf8Zk9IF8Nk6fPm1nDSGTPa5evdrerSQgsWnTJj2XrF6xYsUKXWJTyDwQ69evN/fcc48pKSkxq1atMufOndM8J+jw4osvmrvuuss89thj+nkGAAAA0gm3VQzERNgdwkzICAcJOGzcuFHTqUin8oEHHtBvkxFfUXzGJBglnw0nSGCTgIIEHKqqqnQiyDA5QQcAAABgJGhBoiDlovPU3NysIxzSBRwc0qksLS01bW1tdhZiIqrPWFNTk3426uvrTUdHh+7r7Ow0jY2NOl+DjHAIO+AgCDoAAAAgCFqQKEi56DxVV1eblpYWe3dK0qmsq6uzd7udvzfffNM8+uijOpmfM8GgrCogQ+dlePy9995rtm3b5gY5nHKvv/66eeSRRzT/pZde0vv3pRMr5zl69Kh7ns2bN5upU6eaadOmmS1btug+ZC7Kz1h7e7t+NmTUgzyPTABZW1vrO4cDAAAAkEvRtYqBPBZlhzAV6cA7czhkoqurSzuTNid4ILdpvPfee5qWSQPFjh07dFsCCS+//LKmd+/ePajc008/bT766CN3W+7h//jjjzUtnVixc+dO3ZYVEA4cOKBpCWAgc7n4jAEAAAD5hlYxClIuOoTFxcWmv7/f3p2STOo3fvx4e7cbLLh06ZLewy/pMWPGaN6MGTN0+8KFC6anp0fTc+bMGVJuYGDA3ZZjZRSD9zyVlZXusTJUX9IzZ850XwOGl4vPGAAAAJBvaBWjIAXtEE6ePNntrI/0MXbsWA0EZKq7u9tUVFTYu93z+W1LYEPSEkRwAgkTJkwYctxw2xLssF9/UVGReyyG5/3bAgAAAIWKVjEKUtAOYdByYtmyZe7cC5mQWxvWrFlj704bLHDu8ZfRC+fPn9f03Llzhxw33Lbc1iFpWaYRwYzmswIAAAAkBa1iFKSgHcKg5URDQ4NvEMGP3DYh8zT4TQyYLliwdetWTXvndJC0fdxw297znDhxQtOLFy92j8XwRvNZAQAAAJKCVjEKUtAOYdByQkYNlJeXm9OnT9tZQ6xbt06XPvSTLlggwYoNGza4q1ds377d3L59e8hxw23LfBIywaScp6SkxKxatcqcO3fOPRbDG81nJR1ZjeTQoUNm5cqV+nmS5ykrK9ORNBLY6uvrs4sAAAAAORNNqxjIc0E7hEHLOVpbW/UWiLNnz9pZSoIGEnCoqqrSCRwRX6P9rPjp7e01S5YsMQsXLjSHDx92V0ORn3LrTk1NjQYi5HMGAAAA5IPwW8VADATtEAYt59XU1GRKS0tNfX296ejo0H2dnZ2msbHRzJ49W0c4EHCIvzA+K14ywkECDrJUqqRTkZE0Etjat2+fnQUAAABkXbitYiAmgnYIg5aztbe3m7q6OnfiR5m4sba21ncOB8RTWJ8VR3Nzs45wSBdwcMhIGglstbW12VkAAABAVoXbKgZiImiHMGg5FJ6wPyvV1dWmpaXF3p2SjKSRwJZNXpc8ZE6IRYsWDdpnHyO6urrM8uXLzaRJk3Qp1fnz55tjx465xwIAAADphNsqBmIiaIcwaDkUnrA/K1OnTnXncMiEBAtkBI3NCSjInBCXLl0atM8+RixYsMAcPHjQXL9+XW/dkP3Tp093jwUAAADSCbdVDMRE0A5h0HIoPGF/VoqLi01/f7+9OyVZgURGJticgMKVK1eG7Eu1ferUKbNp0yYzb9483T927Fg3DwAAAEgn3FYxEBNBO4RBy6HwOB33MB6VlZVmypQppqenx36alLq7u01FRYW92z3nwMDAkH1Cllj1br/yyiualtsxTp48OSgPAAAAGA4tRxSkoJ2moOVQeML+rCxbtkyXxczU3r17zZo1a+zdvkEDGbkg+27dumUuXrw46JiJEydq+urVq/rwKw8AAACkQssRBSlopylouTDIqgWHDh3Sb5zLy8v1tZSVlWlntKGhwfT19dlFkENhf1bkPfYLIvi5efOmmTVrlu9qKH5BA1mqVfa9//775plnnhl0jMwLIenjx4+bXbt2+ZYHAAAAUqHliIIUtNMUtNxo9fb2miVLluiSiTIBoDOhoPyUb79ramo0ENHa2mqVRK6E/VmRUQbyHstkjsNZt26dWb16tb1b+QUNJKAgE1U+9NBD5sMPPxx0zJEjRzRPAlzr16/3LQ8AAACkQssRBSlopyloudGQEQ4ScNi4caOmU5HO6AMPPGD27dtnZ2WNt0Na6J3TKH53CSrJe3z27Fk7S8kIBwk4VFVVma+//trOBgAAALIu/FYxEANBO4RBy41Gc3OzjnBIF3BwSGe0tLTUtLW12VlZR9Ahmt+9qalJ3+P6+nrT0dGh+zo7O01jY6PeJiEjHAg4AAAAIF9E0yoG8lzQDmHQcqNRXV1tWlpa7N0pSWe0rq7O3q2TBG7evFmHyk+bNs1s2bJF9wknQPD666+bRx55xNx7773mpZde0pULpIM7ffp0c/ToUT22q6vLLF++3EyaNEmXZJw/f745duzYoPPY6UIU5e/e3t6u77GMepDnkXkXamtrfedwAAAAAHIpulYxkMeCdgiDlhsNCRI4czhkQoIC0gm17dy5U1+/rGpw4MABTW/btk3znADB008/bT766CN3W+7h//jjjzUtHVyxYMECc/DgQXP9+nW9pUPyJCjhPY+dLkSF/LsDAAAADlrFKEhBO4RBy41GcXGx6e/vt3endOPGDR2BYKusrNTXf+nSJR1+L+mZM2dqnhMgkLyBgQF3+8KFCzoaQtJjxoxxz3Xq1CmzadMmM2/ePM2TJRe957HThaiQf3cAAADAQasYBSlohzBoucmTJ7ud8JE+pEPf09NjnzKl7u5uU1FRYe/WQIR97qKiIs1zth3ptuWWC0nL0p0nT54clJcqXYgK+XcHAAAAHLSKUZCCdgizXU4sW7ZMl8XMlNw+sWbNGnu33nIhr0OWXrTZAYJ02xMnTnTPI49UgQb7HIWmkH93AAAAwEGrGAUpaIcw2+VEQ0ODbxDBjyyZOGvWLN8JBbdu3aqvQ0YqnDhxQtOLFy/WPDtAkG7bCV4cP37c7Nq1a1BeqnQhKuTfHQAAAHDQKkZBCtohzHY5IaMJysvLddLG4axbt06XTPQjcz3IxJD33HOPKSkpMatWrTLnzp3TPDtAkG77yJEjOrllWVmZni9VoME+R6GJ6neXpVMPHTqkt7fI50KeR94LGREjAaq+vj67CAAAAJAz0bSKgTwXtEOY7XKO1tZWXT3i7NmzdpaSEQ4ScKiqqtJJIpF7o33P/fT29polS5aYhQsXmsOHD7urmshPuQWnpqZGAxHyeQEAAADyQfitYiAGgnYIs13Oq6mpyZSWlpr6+nrT0dGh+zo7O01jY6OZPXu2jnAg4JA/wnjPvWSEgwQcNm7cqOlUZESMBKj27dtnZ6mgI1CClgMAAEBhowWJghS085Ttcrb29nZTV1ennUo5p8yvUFtb6zuHA3IrrPfc0dzcrCMc0gUcHDIiRgJUbW1tdhbBAwAAAGQVLU8UpKCdrmyXQ3yF/Z5XV1eblpYWe3dKMiJGAlQ2J+ggI2SmT5+uc0FcuHBB87q6uszy5cvNpEmTdInV+fPnm2PHjg0q503LvBKLFi1Kue/WrVtm06ZNOo/Ivffea7Zt25ZR0AQAAADJEW6rGIiJoB3CbJdDfIX9nsvknc4cDpmQAIKMhLE5wYGnnnrK7NmzR9Nr167VvAULFpiDBw+a69ev620akieBCW85b1rmlbh06VLKfTt27NB9smLKyy+/rOndu3drHgAAAApDuK1iICaCdgizXQ7xFfZ7XlxcbPr7++3dKclqJTJaweYEB2R0w8WLFzU9bdo0N//UqVM6OmHevHmaN3bs2EHlvOkrV6645fz2zZgxw32unp4eTc+ZM8fNBwAAQPKF2yoGYiJohzDb5RBfTic8jEdlZaWZMmWKdtwz1d3dbSoqKuzd7jkHBgb09gdJjxs3TvNkRIJsyy0SJ0+edI/1lrPP4XdehwRKZJ88j/NcEyZMcPMBAACQfPSEUJCcztNIZbsc4ivs91zmXpBlMTO1d+9es2bNGnu3GxyQ0QdyG4SknVsoJk6cqNtXr17Vh1+gwU47/PY5E57Kc50/f17Tc+fOHXQMAAAAki3cVjEQE3bnKFPZLhcGmbjv0KFD+u11eXm5vpaysjLtxDY0NJi+vj67CEIQ9nsu75VfEMHPzZs3zaxZs3xXNXGCAz/+8Y91WU1Jr1+/XvNkDgjZPn78uNm1a9egQEKqtMNv39atW3Wfd04HSQMAAKBwhNsqBmLC7hxlKtvlRqu3t9csWbJEl1qUCf6ciQjlp3xrXlNTo4GI1tZWqyRGK+z3XEYeyHslEzwOZ926dWb16tX2buUEB9544w1dVvOP//iPdW4HceTIEZ2wUoJSEohIFWjwCzD47ZPgx4YNG9zVK7Zv325u37496BgAAAAkW7itYiAm7M5RprJdbjRkhIMEHDZu3Jh2mULpxMowePnWO0p+ndIki+J3leCQvFdnz561s5R08iXgUFVVZb7++ms7GwAAAMi68FvFQAwE7RBmu9xoNDc36wiHdAEHh3Ri5VvvtrY2Oys0BB3C0dTUpO9VfX296ejo0H2dnZ2msbHRzJ49W0c4EHAAAABAvoimVQzkuaAdwmyXG43q6mrT0tJi705JOrF1dXX2bl11YPPmzTrsXpZW3LJli+4TTiDhzTffNI8++qhOSOhMdiiTB8q8EbJPOsTeoEMm55Q5KBYtWjTs8bKM5M9+9jNz33336USIy5cvN7/+9a/dcrL8ozO8f9u2bYOCMM8//7ybDluU73l7e7u+V85EjTIXQ21tre8cDgAAAEAuRdcqBvJY0A5htsuNhnTQnTkcMtHV1aWdV9vOnTv19ctqCAcOHNC0dN6FEyCQWzjee+89TcsEhmLt2rVuOXt+gEzOKXNQyOoKwx3/wgsv6PaePXvM+++/r2kZ4SF27Nih296JDHfv3q15znNFFXhwflcAAACgkNEqRkEK2iHMdrnRKC4u1lEAmbpx44YZP368vdtUVlbq65cAgAzbl/TMmTM1zwkQSJ7MJyDpMWPGaJ6MSJDty5cv66gH59hMz3nlypXfvYBhjpdbCpznsc2YMUPz5Pl7eno0PWfOHDffea4oAg/O7woAAAAUMlrFKEhBO4TZLjd58mS3YzySh3TSp0yZoh3tTHV3d5uKigp7twYi7PMXFRVpnrPt8G6PGzdO0wMDA/rw5mVyTinjSHe8k+c93iGBF8mT2yzkIekJEya4+c65JOhgnz+MBwAAAFDoaBWjIAXtEMalnJD5FJz5FTIhty6sWbPG3q23XMjrkCUbbXbn2rstAQxJy+gEuc3DmzeSc4p0xzsjHZxlH72cOQ9kpMP58+c1PXfuXDdftqMY5SDs3wEAAAAoRLSKUZCCdgjjUk40NDT4BhH8yK0RMheD30SEW7du1dch8yKcOHFC04sXL9Y8O0Dg3ZalGyX96quvmg0bNgzKG8k5hzveGaUgz/PLX/5S0wsWLBhSzpnTQdKOqAIOwv4dAAAAgEJEqxgFKWiHMC7lhIwKKC8vN6dPn7azhpAAgSy16EfmepCJIGUFiJKSErNq1Spz7tw5zbMDBN5tGeGwdOlSvUVEAgLevJGcc7jjJWAiK1TI7yqrV6xYsUKXAHXyJODhrF6xfft2c/v2be+pI2P/DmGR1TcOHTqkq3vI7yzPU1ZWpiNbJNDU19dnFwEAAAByJppWMZDngnYI41LO0draqrcYOJ1wm3TKJeBQVVWlEzQiPKN97/z09vaaJUuW6OocsrqHszqJ/JRbaWpqajQQIe87AAAAkA/CbxUDMRC0QxiXcl5NTU2mtLTU1NfXm46ODt3X2dlpGhsbdT4EGeFAwCF8Ybx3XjLCQQIOsjyppFORkS0SaNq3b5+dBQAAAGRduK1iICaCdgjjUs7W3t5u6urq3IkVZWLG2tpa3zkcEI6w3jtHc3OzjnBIF3BwyMgWCTS1tbXZWQAAAEBWhdsqBmIiaIcwLuWQe2G/d9XV1aalpcXenZKMbJFAk01elzzefPNN8+ijj5rp06e7q5w4efax3vTrr79uHnnkEZ0j46WXXtKJOSXAIec5evSoHivLk27evNlMnTrVTJs2zWzZskX3ec8jc1IsWrTIPV7m5XDm3ti2bVtGwRUAAADkv3BbxUBMBO0QxqUcci/s90468M4cDpno6urSES02p9Mvt2m89957mpaVS7x59rHe9NNPP20++ugjd1sm+Pz44481LSNpxM6dO3VblmE9cOCApiWQ4D2PzEkhk42KHTt26D7vKiO7d+/+3YsAAABArIXbKgZiwtuxGom4lEPuhf3eFRcXm/7+fnt3SrLix/jx4+3dbqdfOvwykaikx4wZMyjPPtYuNzAw4G5fuHBBRyp4z1NZWekeK/OFSHrmzJmDznPlyhX3eWbMmOGeq6enR9Nz5sxx8wEAABBf4baKgZjwdqxGIi7lkHtO5zqMh3Tip0yZoh3yTHV3d5uKigp7t3tOv21vWpYWTZU33LYEO5xt51FUVDToOAlcOCSgIvskeOEEMCZMmODmAwAAIL7o0aAgeTtLIxGXcsi9sN+7ZcuWuXMvZEJubVizZo29e1BwwN4eO3as2/m/ePHioLx05extua1D0levXnXzHXY54UxwKiMdzp8/r+m5c+cOOgZAYfvwww91WWAJpso1Qn7KtuwHAOS3cFvFQEzYnZ5MxaUcci/s966hocE3iOBHbpuQeRr8ViexO/3ebVlCVdLvv/++eeaZZwblpStnb2/dulXTMkfDiRMnNL148eIhxzm8xztzOkgaACQIKnPHONcOv4fkO5PVAgDyT7itYiAm7E5PpuJSDrkX9nsnowbKy8vN6dOn7awh1q1bZ1avXm3vVnan37t9/PhxnbDyoYce0m8PvXnpytnbMp+EdAJkNYqSkhKzatUqc+7cuSHHOSRIsmHDBnf1iu3bt+vtHQAwXMDBechxqfhddxzp8gAA4eAqi4IUtIERl3LIvSjeu9bWVr0V4ezZs3aWks67BByqqqp0AkcAiDNv8DOTR5BbLZyyAIDocJVFQQrawIhLOeReVO9dU1OTKS0tNfX19aajo0P3dXZ2msbGRr09QkY4EHAAkAQ//OEPhwQW0j3keD9OvpC5Y2SOnOnTp+t105sHAIgGV1kUpKANjLiUQ+5F+d61t7eburo6dwJGmbixtrbWdw4HAIiradOmDQkspHvI8X6cfLF27VpNy2S73ls3AADR4SqLghS0gRGXcsg93jsAGJ1x48YNCSyke8jxfpx84QQyLl++rKMevHkAgGhwlUVBCtrAiEs55B7vHQD4mzx58pCAgf2orKyMZKSDE8gYGBjQhzcPABANrrIoSEEbGHEph9zjvQMAf5leH6OY06GiokLTly5dMl999dWgPABANLjKoiAFbWDEpRxyj/cOAPxlen0Ma/UKJ1/ICj+SfvXVV3WpXm8eACAaXGVRkII2MOJSDrnHewcA/kZyffRO9pjuIcel4hwjZITD0qVL9RYPCTx48wAA0eAqi4IUtIERl3LIvajeu2+//dYcOnTIrFy50pSXl+vzlJWV6RJwDQ0Npq+vzy4CAHllJNfHW7duDRt4kHw5DgCQnzK/6gMJMpIGj1dcyiH3onjvent7zZIlS8zChQvN4cOH9X5kIT/feecdU1NTo4GI1tZWqyQA5I8g10e5dUKucc6cDPJTtlPdUgEAyB8jv+oDCRCkwSPiUg65F/Z7JyMcJOCwceNGTady+vRp88ADD5h9+/bZWcNyvjX0ky4vnaDlACQX1wQAKCxc9VGQgjZ44lIOuRf2e9fc3KwjHNIFHBxnz541paWlpq2tzc4KLGjwIGg5AMnFNQEACgtXfRSkoA2euJRD7oX93lVXV5uWlhZ7d0r19fWmrq7O3m36+/vNz372M3PfffeZiRMnmuXLl5tf//rXmucNEFy4cEHniZg+fbppbGwclNfV1aXlJk2aZMaPH2/mz59vjh07Nmw5ued68+bNZurUqWbatGlmy5Yt3IcNFKCwr48AgPzGVR8FKWiDJy7lkHthv3fSUXfmcMiEBAbuv/9+e7d54YUX9LXt2bPHvP/++5qWERTCGyBYu3atpvfu3TtoEjexYMECc/DgQXP9+nW9nUP2S5BhuHI7d+508w4cOKDpbdu2aR6AwhH29REAkN+46qMgBW3wxKUcci/s9664uFhHKWTqxo0bOgrBNnv2bH1tly9ftrMGBQhkJIJznIxe8OaJU6dOmU2bNpl58+bp/rFjxw5brrKyUtOyZN3XX3+t6ZkzZ7rnBFAYwr4+AgDyG1d9FKSgDZ64lEPuOZ3tMB7SWZ8yZYrp6emxnyal7u5und3dJoEIOefAwICd5T6fGDdunHucPLx5r7zyiqZl2c6TJ09mXM55bu+jqKjod08OoGA41wQAQGHgqo+CFLTBE5dyyL2w3zuZJ0GWxcyU3MKwZs0ae7c70uHixYt21qAAgbMsnYxKkNs6vHkyF4Skr169qo9My8ntHk45AIUr7OtjKjLx7qFDhzRAKssJy/OWlZXp9bShocH09fXZRQAAEcjOVR/IM0EbPHEph9wL+72TBrJfEMHPzZs3zaxZs8wHH3xgZ5nnn39eX9urr75qfvnLX2pa5mgQ3gDBunXr3OM2bNjgGzw4fvy42bVrV8bltm7dqmkZKXHixAlNL168WPMAFI6wr49+ent7dZlhmbPm8OHD7pw48lMCuDU1NRqIaG1ttUoCAMIW/VUfyENBGzxxKYfcC/u9k9EB0kCWiRuHIx3/1atX27uVBCRkLgY5l4xYWLFihS6xKbwBAhmpsHTpUjN58mQNIHjzjhw5ohNbyjeG9mSR6crJPBNy/D333GNKSkrMqlWrzLlz5zQPQOEI+/pokxEOEnDYuHFj2mWG5Xr6wAMPmH379tlZAIAQRXvVB/JU0AZPXMoh96J47+QbOWkgO0ECmwQUJOBQVVWlEzUCQD6K4vro1dzcrCMc0gUcHHI9LS0tNW1tbXYWACAk0V71gTwVtMETl3LIvajeu6amJm0g19fXm46ODt3X2dlpGhsbdb4GGeFAwAFAPovq+uiorq42LS0t9u6U5HpaV1dn73ZHar355pvm0Ucf1aWBnbl1bt26paPGZOTWvffeq8v/OkEOp9zrr79uHnnkEc1/6aWX9NYyuX7LeY4ePeqeZ/PmzTp6TFb/2bJli+4DgCSJ9qoP5KmgDZ64lEPuRfnetbe3awNZRj3I88gcC7W1tb5zOABAvony+iikA+/M4ZCJrq4uvY7anOCB3Kbx3nvvaVrmyxE7duzQbQkkvPzyy5revXv3oHJPP/20+eijj9xtub3s448/1rRcv8XOnTt1Wyb/PXDggKYlgAEASRLtVR/IU0EbPHEph9zjvQMAf1FfH4uLi01/f7+9OyWZb0aW9LU5wQKZq0ZuX5P0mDFjNG/GjBm6feHCBV3OWNJz5swZUs67dLAcK6MYvOeRJZGdY2WUmqRnzpzpvgYASIJor/pAngra4IlLOeQe7x0A+At6fZQJap0OfKqHdOKnTJmigYBMdXd363K/NuecftsS2JC0BBGcQMKECROGHDfctgQ77N+hqKjIPRYAkiDYVR+IOW/lPxJxKYfc470DAH9Br4+Zllu2bJk790Im5NYGvyWJ0wULnNvbZPTC+fPnNT137twhxw237SxBLCsUAUBSZXb1BhIm04aLLS7lkHu8dwDgL+j1MdNyDQ0NvkEEP3LbhMzT4DcnTrpgwdatWzXtndNB0vZxw217z3PixAlNL1682D0WAJIgs6s3kDCZNlxscSmH3OO9AwB/Qa+PmZaTUQPl5eXm9OnTdtYQssywrPrjJ12wQIIVGzZscFev2L59u7l9+/aQ44bblvkkZIJJOU9JSYlZtWqVOXfunHssACRBZldvIGEybbjY4lIOuRfVeydLsh06dMisXLlSG9XyPGVlZTqcWL7d6+vrs4sAQF4Jen0cSbnW1la9BeLs2bN2lpKggQQcqqqqWGYYACKW+dUbSJCRNFy84lIOuRfFe9fb22uWLFliFi5caA4fPuwuCSc/5f7lmpoaDURIYxsA8lXQ6+NIyzU1NZnS0lJTX19vOjo6dF9nZ6dpbGw0s2fP1hEOBBwAIHoju3oDCTHShosjLuWQe2G/dzLCQQIOsl68pFOR4cTy7d6+ffvsrFGR+52D3mcsf4uw/x4A4ivo9SBIufb2dlNXV+dO/CgTN9bW1vrO4QAAiMbIr95AAgRpuIi4lEPuhf3eNTc36wiHdAEHhwwnlm/32tra7KzARhM4GE1ZAMkT9HoQtBwAILe4eqMgBW24xKUcci/s9666utq0tLTYu1OS4cTy7Z5N1pPfvHmzmTp1qpk2bZrZsmWL7hOffPKJWbRokZk4caK56667zGOPPabr1ztBA2/woKuryyxfvtxMmjRJ15mfP3++OXbsmObJEnIyx8T06dN1GLO3nDzXpk2b3MnXtm3bllEgBUByBL0+Bi0HAMgtrt4oSEEbLnEph9wL+72TIIEzh0MmJCggw4htO3fu1Ncm69IfOHBA09LxFw8++KBunzlzxrz77ruaXrBggeZ5AwdC9h88eNBcv35db+mQPAkyiLVr17rPIbOye8vu2LFD095l5nbv3u2eF0DyBb0+Bi0HAMgtrt4oSEEbLnEph9wL+70rLi42/f399u6UZBk2GYFgq6ys1Nd26dIlnUBN0jNnztQ8CWzItoxa2L9/v7l27Zpbzhs4cJw6dUpHLcybN0/zxo4dq/tlBIVsX758WUc9eMvOmDFD07K/p6dH03PmzPGeFkDC2deSTAUtBwDILa7eKEhBGy5xKYfcmzx5stvZHu1DAgVTpkzRTnqm5LaIiooKe7cGIuzzFxUVaZ4sxSm3Szj75RYI55YOZ59DRirItizdefLkyUH548aN0/TAwIA+vHkSPJG03GYhD0lPmDDBPS+A5PNeS0YiaDkAQG5x9UZBCtpwiUs5JI/MkSDLYmZKbm1Ys2aNvVtvuZDP1dWrV+0sJbdLvPXWW7r8phwngQfhDRwImffBOY88vPkS7JC0jKaQW0K8ec4M8jLS4fz585qeO3eue14AyRe0bgtabqRknhkJwkpQVZYhluctKyvT63BDQ4Pp6+uziwAA0sjO1RvIM0EbLnEph+SRhq5fEMHPzZs3zaxZs3yXhNu6dat+rmSkwokTJzTtLIUpq2PI9ttvv20+/fRTTcutE+Luu+/W7StXrui2E7w4fvy42bVrl6adz+u6des0/eqrr5oNGzYMyvM+vzOng6QBFI6gdVvQciPR29uryxPL9fDw4cPuXDryUwK/EpCVQERra6tVEgCQSvRXbyAPBW24xKUckkdGE0hDVyZtHI50+levXm3vVjLXg0zuKCMYSkpKzKpVq8y5c+c07/PPPzePP/64BhhkJIM0vCX4IN544w09Xla0EEeOHNE5IOTbP3uySBnhsHTpUr3FRAIP3jwJiEggwlm9Yvv27eb27duaB6AwBK3bgpbLlIxwkOvexo0b066qI9dhGbW1b98+O8uX9xqYjgSKnSAwACTJ8FdAIIEyqfz9xKUckkm+WZOG7tmzZ+0sJR16CThUVVXpJJEAkI+C1m1By2WqublZRzikCzg45DpcWlpq2tra7KwhMg06ZHocAMQNVzYUpKCVelzKIbmampq0oVtfX286Ojp0X2dnp2lsbDSzZ8/WEQ4EHADks6B1W9BymaqurnYnz82EXIfr6urs3Tpnjcz/IMsIy7XZG0yQ5YyXL1+uk/bKxL6yWtCxY8fcYzI5FgDiJtqrN5CngjZc4lIOydbe3q4NXWdSRplfoba21ncOBwDIN0HrtqDlMiW3jDlzOGRCggJy/bWtXbtWX6tM6GvffrZgwQJz8OBBnbRXbtOQ/RKcEN7jhjsWAOIk2qs3kKeCNlziUg4AgHwVtG4LWi5TsqRvf3+/vTslmSNHRiDYpk2bpq/18uXLOurBDiacOnXKbNq0SSfqlf1jx47V/fZx6Y4FgDiJ9uoN5Cm7Us9UXMoBAJCvgtZtQcvJpLZOhz7Vo7Ky0kyZMsX09PTYxVPq7u7WJYJt48aN03MODAzow3kOIav1SFqW4zx58uSgPG96uGMBIE64cqEgBa2041IOAIB8FbRui7qczMMgy2JmSm6f8FvKWAIR8pyyko/cruENFsjKQJKWFYnk4c2zgwrpjgWAOOHKhYIUtNKOSzkAAPJV0Lot6nINDQ2+QQQ/slrQrFmzfOfSkVWE5DllyWBZItgbLJA5ICR9/Phxs2vXrkF5slyxpK9cuTLssQAQJ1y5UJCCVtpxKQcAQL4KWrdFXU5GE5SXl+ukjcORwIKsFuRHRjgsXbpUb+uQwIM3WHDkyBGdsLKsrGzIJJNvvPGGKSkpMY899tiwxwJAnHDlQkEKWmnHpRwAAPkqaN2WjXKtra26MtDZs2ftLCUjHCTgUFVVxfLEAJChzK/CQIKMpAHiFZdyAADkq6B1W7bKNTU1mdLSUlNfX286Ojp0X2dnp2lsbDSzZ8/WEQ4EHAAgcyO7CgMJMdIGiCMu5QAAyFdB67Zslmtvbzd1dXU66kHKy/wKtbW1vnM4AADSG/lVGEiAIA0QEZdyAADkq6B1W7bLAQDCwVUYBSloAyQu5QAAyFdB67ZslwMAhIOrMApS0AZIXMoBAJCvgtZt2S4HAAgHV2EUpKANkLiUAwAgXwWt27JdDgAQDq7CKEhBGyBxKQcAQL4KWrdluxwAIBxchVGQgjZA4lIOAIB8FbRuy3a5kfr222/NoUOHzMqVK015ebk+b1lZmVm2bJlpaGgwfX19dhEAKAjZuQoDeSZoAyQu5QAAyFdB67ZslxuJ3t5es2TJErNw4UJz+PBh89VXX+l++fnOO++YmpoaDUS0trZaJQEg+aK/CgN5KGgDJC7lAADIV0HrtmyXy5SMcJCAw8aNGzWdyunTp80DDzxg9u3bZ2cBQKJFexUG8lTQBkhcygHZwnBiACMVtG7LdrlMNTc36wiHdAEHx9mzZ01paalpa2uzswAgsaK9CgN5KmgDJC7lgGxgODGAIILWbdkul6nq6mrT0tJi706pvr7e1NXV2bv1dcrjtddeM5MnTzZLly41ly5d0rxbt26ZzZs3m6lTp5pp06aZLVu26D7xySefmEWLFpmJEyeau+66yzz22GOmu7vbLbdp0yZzzz33mHvvvdds27Yto+AIAIQp2qswkKeCNkDiUg6IWljDiQ8ePGhmzZplxo0bZ77//e+7jW4AyRX0fzzb5TIlgQAn6JqJrq4uc//999u73evfunXrzJ49ezT9ox/9SPN27typ23v37jUHDhzQtAQQxIMPPqjbZ86cMe+++66mFyxYoHk7duzQ7VdeecW8/PLLmt69e7f7nACQDdFehYE8FbQBEpdyQNTCGk5855136uf8yy+/NN98842dDSCBgtZt2S6XqeLiYtPf32/vTunGjRtm/Pjx9m59nfLo6ekxFy9e1PR9992neZWVlbotIx++/vprTc+cOVPzJOgh2/Pnzzf79+83165dc885Y8YMzbtw4YKeV9Jz5sxx8wEgG6K9CgN5KmgDJC7lgKiFMZzYaWA7D+8+GS48duxY8wd/8Aca2JAG/bx583Sf5DFkGIivoHVbtsvJLQ72dcp+SDBgypQp2qHPlNz6UFFRYe92zynXN3lIWkaBCQlS2M9dVFSkeTKvzqRJk9z9cl10rs8SELHPOWHCBPc5ASAbgl2FgZiTSjeIuJQDohb2cGK/7b/+67/WtAwz/vu//3tN//SnP9U8hgwD8RW0bsvXcjJxrsxjkym5RWLNmjX2bvf698UXX7gjHaZPn655cv2U7atXr1qlfuf69evmrbfe0rl05DgJPAi5vU22ZaTD+fPnNT137lyrNABEK7OrKZAwmTYkbHEpB0Qt7OHEftvSiJb5HqTx/J3vfEeHCTvDhhkyDMRX0LotX8vJSj1+QQQ/N2/e1OvaBx98YGe51z+Zx0HmwZH0U089pXlbt27VbQm0njhxQtOLFy/WPLnVTbbffvtt8+mnn2paRobZ5ZwAraQBIJsyu5oCCZNpQ8IWl3KALZNhwpk+ohhOnGr7hRdecPf9+Mc/dvczZBiIL+//+EjkazkZfSAr9cjEucORSSJXr15t71bOte7FF190V6GQVYKEBG7Xr1+vQdiSkhKzatUqc+7cOc37/PPPzeOPP27uvvtuXcFCJvmV4IOQIMeGDRvcW9G2b99ubt++7T4nAGRDZldTIGEybUjY4lIOsIX9WQp7OLHftjS2JVgiy8NJY1qCCtK4FgwZBuIr6PUon8vJ0sByXZKJc/1I518CDlVVVToRpB/7eggAScGVDQUpaKUel3JxJpMByqRYK1eu1G+O5G9QVlamnVwZwtrX12cXQQbC/iyFPZzYb/sv//IvNS3LaspwYEk7z8mQYSC+gl6P8r1cU1OTrtQjE+d2dHTovs7OTtPY2Ghmz56tIxxSBRyEfT0EgKTgyoaCFLRSj0u5uJJvtmVYqNyfevjwYXeiQvkp36rLBFkSiJBvlDAyYX+Wwh5ObG//6le/MmPGjNFvBWUo8MDAgC4Hd8cdd5hTp04xZBiIsaDXoziUa29v15V6nNFYMgFkbW2tb9AVAArFyK+mQAIEaUiIuJSLIxnhIAGHjRs3pl36UDq50piTSbb8SMPOmVxrOHaHNxX5pl2+qZely77//e/b2bGQye85UmEMJwZQeIJej+JSDgAwGFdTFKSgDYm4lIuj5uZmHeGQLuDgkE6uDGFta2uzszIOJIhMj73zzjv1uC+//NJ88803dnYsZPJ7BjHa4cQACk/Q61FcygEABuNqioIUtCERl3JxVF1dbVpaWuzdKUknV4awejlBBG8wQVY22Lx5s5k6dapOSLhlyxbd5z0+3XGpzrlp0yZ3aP+2bdvcYIlz3JtvvmkeffRRXWPdmXAx1XM4nn/+eTcdtig/SwwnBjASQa9HcSkHABiMqykKUtCGRFzKxZF0xJ05HDLR1dWlnVubNzggdu7cqduyesKBAwc0LUEC+9hMjxM7duzQbe8khrt37x50rNwm8t5772labs0Y7jmcslEFHryvHwByKej1KC7lAACDcTVFQQrakIhLuTgqLi42/f399u6UZM3y8ePH27vdTr+jsrJSty9duqTD/CU9c+bMIcdmepyYMWOGbstyjT09PZqeM2fOoGPlPDKngaRlQsThnsNbNorAg/f1A0AuBb0exaUcAGAwrqYoSEEbEnEpl22TJ092O8xBHtIZnzJlinbgM9Xd3W0qKirs3e45HRKYsJ+vqKhoyLGZHickQCLbcmuEcwvGhAkTfI/N9Dm8xzpBB2cuiTAesuoDAOQDuSYFEZdyAIDBuJqiIAVtSMSlXLaF8TqXLVvmzn2QCblFYc2aNfZut5PtkFswZFuWeLR5j830OOHMXSAjHc6fP6/puXPn+h6b6XMIyYtilIPwviYAyKWg16O4lAMADMbVFAUpaEMiLuWyLYzX2dDQ4BtE8CO3Lcg8CX4TFd599936eq5cuaLbW7du1W2Zf+HEiROadpbUlLTz2jM9zj7WmdNB0n7HZvocIqqAg/C+JgDIpaDXo7iUAwAMxtUUBSloQyIu5bItjNcp3/6Xl5eb06dP21lDrFu3Tpdi9PPGG2+YkpIS89hjj+m2zP2wfv16XWlC9q9atcqcO3dO87wBgUyPExL02LBhg7t6xfbt283t27d9j830OaIWxnvkR1btOHTokFm5cqW+f/I8ZWVlOnJFAkl9fX12EQAFLuj1KC7lAACDcTVFQQrakIhLuWwL63W2trbqrQtnz561s5R09iXgUFVVpRMxInNhvUdevb29ZsmSJWbhwoXm8OHD7uoj8lNulampqdFAhLyvAOAIej2KSzkAwGBcTVGQgjYk4lIu28J8nU1NTaa0tNTU19ebjo4O3dfZ2WkaGxvN7NmzdYQDAYeRC/M9EjLCQQIOsjSopFORkSsSSNq3b5+dlXPyNwn77wJgeEH/7+JSDgAwGFdTFKSgDYm4lMu2sF9ne3u7qaurcydslAkYa2trfedwQGbCfo+am5t1hEO6gINDRq5IIKmtrc3OyimCDkBuBP2/i0s5AMBgXE1RkII2JOJSLtvi8joLWdjvUXV1tWlpabF3pyQjVySQZHM6/q+//rp55JFHdI6Ml156SSfblEDF9OnTzdGjR/VYWZ5006ZN7lwa27Zt0zwpL3NKeK1YsUL3y20emzdvNlOnTjXTpk0zW7Zs0fMIgg5AbgT9v4tLOQDAYFxNUZCCNiTiUi7b4vI6C1nY75F04p05HDLR1dWlI1ZsTsf/6aefNh999JG7LRNufvzxx5qWES9ix44duu1dNWT37t3m4YcfNnfccYc5c+aMHic/ZVuWMf27v/s7PU6WWD1w4ICmJVjhfW4A2RX0/y4u5QAAg3E1RUEK2pCIS7lsi8vrLGRhv0fFxcWmv7/f3p2SrNwxfvx4e7fb8b906ZIZGBhwty9cuKAjEiQ9ZswYPXbGjBluXk9Pj6bnzJlj9u/fr+knn3xSj5OAhWzLPCCVlZXu+WUuEEnPnDlz0HMDyK6g/3dxKQcAGIyrKQpS0IZEXMplW1xeZyGbPHmy28ke7UM68lOmTNGOf6a6u7tNRUWFvds9ZybbEuiQtAQjnIDEhAkTzDfffKO3YkycONF89tln+lNuwbh27ZoGOuzXX1RUNOTcALIn6P9dXMoBAAbjaoqCFLQhEZdy2RaX14nwLFu2TOdLyJTc3rBmzRp795COf7ptZ2JRGelw/vx5TcstFOK5557T7QULFujPZ599VvfLLR2yffXqVfecDvu5AGRH0P+7uJQDAAzG1RQFKWhDIi7lsi0urxPhaWho8A0i+Ll586aZNWuW7+ojdsc/3fbWrVs17Z3TQdJCRl2MGzdO98lIhs8//3xImRMnTmh68eLFQ84NIHuC/t/FpRwAYDCupihIQRsScSmXbXF5nQiPjBwoLy83p0+ftrOGWLdunVm9erW9W9kd/3TbErzYsGGDu3rF9u3bze3bt91j165dq8c+8cQT7j6ZS0LmeJAyJSUlZtWqVebcuXOaZz8XgOwI+n8Xl3IAgMG4mqIgyT3pQcSlXLbF5XUiXK2trXrLw9mzZ+0sJUECCThUVVXpJI4AIILWGXEpBwAYjKADYi3MyfF45NdD3lvkv6amJp3Esb6+3nR0dOi+zs5OXTli9uzZOsKBgAOQTNTByX1QBwMIE0EHxJpUjEgmeW9ra2vt3chD7e3tpq6uzp3oUSZvlPfObw4HAMlBHZxc1MEAwkRtgVijwZNc8t7KhH/ORIEAgPxCHZxc1MEAwkRtgVijwZNcToPn+eeft7MAAHmAOji5qIMBhInaArFGgye5aPAAQH6jDk4u6mAAYaK2QKzR4EkuGjwAkN+og5OLOhhAmKgtEGs0eJKLBg8A5Dfq4OSiDgYQJmoLxBoNnuSiwYMk6OvrMwcPHjTf//73zV133aU/ZVv2A3FHHZxc1MEAwkRtgVijwZNcNHgQV6kCDV9++aXvfgIQiCvq4OSiDgYQJmoLxBoNnuSiwYM4SRVoSBVQGOnxQD6iDk4u6mAAYaK2QKzR4EkuGjzId2EFDsI6D5Bt1MHJRR0MIEzUFog1GjzJRYMH+SjqAEHU5wfCRB2cXNTBAMJEbYFYo8GTXDR4kC9yFQjI1fMCmaIOTi7qYABhorZArNHgSS4aPMilfOvw59vrAQR1cHJRBwMIE7UFYo0GT3LR4EG2xaVjH5fXieSjDk4u6mAAYaK2QKzR4EkuGjzIhrh34OP++hFv1MHJRR0MIEzUFog1GjzJRYMHUUlqRz2pvxfyF3VwclEHAwgTtQVijQZPctHgQZgKrUNeaL8vcoM6OLmogwGEidoCsUaDJ7lG0+B58803zZw5cwbt6+/vN0uWLAn0mXnwwQf1nIgXOt6/w98hOUZzbfM7brTXtuGeE/E1mjoYAGzUFog1GjzJFbTBc/36dVNWVmY2bdrk7jt9+rRZtGiRnjPIZ+YnP/mJmTp1qp4b+Y0Odnr8feJrNNe2VMeN9tqW7jkRb0HrYADwQ22BWKPBk1xBGzx79+7Vsr/4xS/cfbL93e9+d0iD28vJk2/9Hn30UTN9+nTzzjvvaN6RI0c0r7Gx0SqFfEBHOhj+bvES9NomUh032mtbuudEvMl7G6QOBgA/1BaINRo8yRW0wbN8+XIt+9///d/uvj/90z81vb29QxrcXk7exo0bzXvvvafpWbNmad6nn36q23Ju5Ac6zOHi75n/gl7bRKrjRnttS/eciLegdTAA+KG2QKzR4EmuoA0eGX4sZS9evGhnDWlwezl5ly5dMjdv3tT0mDFjNO/8+fO6XVpaapVCNtExzg7+zvkp6LXNyz5utNe2TJ4T8RS0DgYAP9QWiDUaPMkVtMFz5513atlbt27ZWUMa3F52nndbziVpOTeyiw5wbvH3zx9Br21e9nGjvbZl8pyIp6B1MAD4obZArCWpwWM3Bgtd0AaPTIomZX/zm9/YWWn/xnaed/vrr7/W9L333uvmIzp0dPMT70tuBb22ednHjfbalslz5sIHH3yg9YfD/r39pDsmXV46QcvlA3ndQepgAPATzysh8L/iWpn7iXPjJApBGzyrVq3Ssv/zP/9jZw35G3u30+XJPdSSfvzxx918hIsObbzwfmVf0Gubl71/tNc2v+fIB/bvOVpBzxe0XD6Q1x2kDgYAP/G8EgL/K26VeVdXl07YNWnSJDN+/Hgzf/58c+zYMc3zNk7shopfnt8qCzJUVpZTu+eee/Sbq23btplvv/3WPU+cBG3w/MM//IOW/ad/+ic7y/fvOnbs2JR5zrYzw/vPf/5zNx+jR8c1GXgfsyPotc3LPm601zbvubItVX3q/I7e39W7vXLlykHnWbFixZDjL1y4YJYtW6b1q6zs4c1L9bzDlZP6efPmzTpiZdq0aWbLli3urTKffPKJLmk6ceJE/R967LHHTHd3t+blirzuIHUwAPjJXW0BhCCXDZ4gFixYoI1xWRNd1k2X1y+NE+HXQHL45fmtsrBjxw7dfuWVV8zLL7+s6d27d7vniZOgDZ4bN25owEUad8N59913zdy5c+3dQ/z0pz81FRUVOsEkRocOarLx/kYnH69tuayDM61PvdsPP/ywueOOO8yZM2d0v/yUbflbecusXbtW07JM6fr16wflpXvedOV27tzp5h04cEDT8sWAePDBB3VbXo+8d5KW58kleQ1B6mAA8JO72gIIgVOZx8mpU6d0NMK8efP09ft90+5N29tO2m+VhRkzZui2fNvS09Oj6Tlz5rjniZPRNHjkm8BMGtx/8id/Yv7t3/7N3j2EnOuf//mf7d3IEB3R/+P3v5xUvO/hy7drW64/v5nUp97t/fv3688nn3xS9zuBAXtUgoxEkPTly5e1PrXPl+p505WrrKzUtNTdzlwaM2fO1Dxnvg4ZNSGv8dq1a+5z5Yq8nqB1MADYcltbAKPkbQTEgYxAkNcswztPnjw5qEGSKn379u2UefZ2cXGxpmXIpjMr+YQJE9xj40ReOw2e+KLD6c/+/y0UfB6SKZef5UzrU+/2N998o8uDym0Mn332mf6U2xGlk+8tM27cOE0PDAzow5uX7nnTlZNbMZxt51FUVKR5hw4d0ts1nP3ymlpaWjQvV+R1UAcDCEvuagsgBE5lHhfSwJHXfPXqVX14GyTetHxrImkJHMia7KmOs7cfeOABTcs3LM7665l8K5aPaPDET1I7ls7/mHQy5L5rke7+7HT3fKf6X3bS3sdw54qrpH5OCpHzOc2FTOtTe/u5557TtNy+ID+fffbZIcfILSeSllEJX3311aC8dM+brtz999/vlvMjt2u89dZbpqamRo+TwEMuyWugDgYQltzVFkAInMo8LpxGx/Hjx82uXbsGNUi86dmzZ2v6/fffN88880zK4+ztrVu3ato7p4Ok44gGTzwUQgfS+R87fPiwdiZEuvuz093zne5/WTgT+/3gBz/Q7XTnSoJC+Pwkmf35zaZ09endd9+t6StXrui2N09uPXRGJMhIg88//3zIMevWrdP0q6++ajZs2DAoL93zpivnrZ9PnDihaWdZz4ULF+r222+/bT799FNNy60bueS8PupgAGHIXW0BhMCpzONCOhTyzWhZWdmQSaa8aWnMyHEPPfSQ+fDDD1MeZ2/LHA/S0HFWr9i+fbvenhFH3gaP8zvyyL/HnXfeqT+/973vmS+//NJ+GxPB+V2dDoxId3+2SHXPt3MuOy1kiLcEFOSbVKcjJFKdK2nk8yOfI+/nikf+Ppz/gVxJV5++8cYbpqSkRFeBEN484Uz4+MQTT7j7vMfI//XSpUvN5MmTNYDgzUv3vOnKyUSgcrzUz/LaZAnUc+fOaZ78v8uypRIskf//JUuWaPAhl+R1E3QAEJbc1RZACHLZ4EG0aPDEQyF8U+10HOQebUe6+7PT3fOdKi3+5m/+RrdllJIj3bmSoBA+P0mWpM8iBpP3ljoYQFioLRBrNHiSiwZP/CS1A+nX0U93f3a6e75TpTs7O3XId1VV1aDgRrpzxVVSPyeFKO6fRaRGHQwgTNQWiDUaPMlFgyfektSx9Ovop7s/O90936nSMtRa0jKPi1e6c8VJkj4P+D9x/CwiM841jToYQBioLRBrNHiSiwZPcsS9w+nX0U93f3a6e76HS3sfw50r38X9fcfw4vJZxMjJe0sdDCAs1BaINRo8yUWDJ5noiCYb729hoQ5OLupgAGGitkCs0eBJLho8yUcHNRl4HwsXdXByUQcDCBO1BWKNBk9y0eApLHRc44X3C4I6OLmogwGEidoCsUaDJ7lo8BQuOrT5ifcFNurg5KIOBhAmagvEGg2e5KLBA0FHN7f4+yMd6uDkog4GECZqC8QaDZ7kosEDGx3g7ODvjExRBycXdTCAMFFbINZo8CQXDR6kQ8c4XPw9EQR1cHJRBwMIE7UFYo0GT3LR4EGm6DAHw98No0UdnFzUwQDCRG2BWKPBk1w0eBAEHen0+PsgTNTByUUdDCBM1BaINRo8yUWDB6NFB/t3+DsgKtTByUUdDCBM1BaINRo8yUWDB2EqtI53of2+yA3q4OSiDgYQJmoLxBoNnuSiwYOoJLVDntTfC/mLOji5qIMBhInaArFGgye5aPAgG+LeUY/760e8UQcnF3UwgDBRWyDWaPAkFw0eZFtcOvBxeZ1IPurg5KIOBhAmagvEGg2e5KLBg1zKt459vr0eQFAHJxd1MIAwUVsg1mjwJBcNHuSLXHX4c/W8QKaog5OLOhhAmKgtEGs0eJKLBg/yUdSBgKjPD4SJOji5qIMBhInaArFGgye5aPAg34UVIAjrPEC2UQcnF3VwMN9++605dOiQWblypSkvL9e/Y1lZmVm2bJlpaGjguo6CRW2BWKPBk1w0eBAnIw0cjPR4IB9RBycXdfDI9fb2miVLlpiFCxeaw4cPm6+++kr3y8933nnH1NTUaCCitbXVKgkkH7UFYo0GT3LR4EFcpQoofPnll777CTQgrqiDk4s6eGRkhIMEHDZu3KjpVE6fPm0eeOABs2/fPjsrq/793//dfO973zMlJSVm4sSJOjKjra3NPixUH3zwgX6mUJioLRBrkydP1oqRR/Ie8t7S4EHcpQpAEGhAElAHJ/dBHTwyzc3NOsIhXcDBcfbsWVNaWhp5Jz+V//qv/zLf+c53zO///u+bjo4O8x//8R9mxowZ5u6779bXFhXns4XCxDuP2KutrdWKkUfyHnIPJA0eAMhf1MHJfVAHZ666utq0tLTYu1Oqr683dXV19m63Y/7mm2+aRx991EyfPl1vzfDm2cd606+//rp55JFHzL333mteeukl88orr2iAQ85z9OhRPfbP//zP9dhf/OIX7rnklg/Z57ymdM9169Yts3nzZjN16lQzbdo0s2XLFt0nPvnkE7No0SIdPSGB9scee8x0d3e75e3zbNq0ydxzzz36erdt2+YGbYI8B/IbQQckglxUpWLkkbzHCy+8YL/dAIA8Qh2c3Ad1cGakc+zM4ZCJrq4uc//999u73U653Kbx3nvvaXrWrFmD8uxjvemnn37afPTRR+72+vXrzccff6xpua1DSBBCti9cuOCe6/z587rPeU3pnmvnzp2a3rt3rzlw4ICmJWAgHnzwQd0+c+aMeffddzW9YMGCIecQO3bs0G25frz88sua3r1796ieA/mLoAMAAAAi5+1wAElSXFxs+vv77d0p3bhxw4wfP97e7XbML126ZG7evKnpMWPGDMqzj7XLDQwMuNsSWJARAt7zjB07Vre9r9c5Rn4P+9z2dmVlpftcX3/9taZnzpypeRJ8ke358+eb/fv3m2vXrvmeQ8gtHc5r7Onp0fScOXM0L+hzIH9x9QcAAEDkvB0OIJfCnI9EOshTpkzRjnOm5HaAiooKe7d7Tr9tb/r27dsp84bbdkY6yOTGjt/+9re6b9KkSUOOt59LgiXOtvMoKirSPFkuVM7h7JdbJ5zbTuzXJAEO2ZaAhxP0mDBhwqieA/mLqz8AAAAi5+1wALkU9mdR5r9w5l7IhNw2sGbNGnv3kI65d9sZoSAd9IsXLw7KS1fO3v6zP/szTb/xxhu6/YMf/MD84z/+o+77oz/6I92X7rnkFgxJX7169Xcnt1y/ft289dZbukSoHCdBAWG/JrndQ7ZlpINze8fcuXM1L+hzIH+F+x8HAAAA+PB2OBAtmZBPvhGWpRDLy8v1b19WVqad44aGhoJfQSfsz6L8Tf2CCH7ktgmZp0GWkLTZHXPv9uzZszX9/vvvm2eeeWZQXrpy9vZ//ud/6kgCGWkh8z385Cc/cfN//vOf6zHpnmvr1q2alrkYTpw4oWmZeFTICh6y/fbbb5tPP/1U0/PmzdM8WR1Dtq9cuTLkPM6cDpK280byHMhf4f7HAQAAAD6cTgui1dvba5YsWaKds8OHD7sTHMpP+TZevh2WQISsWFCowv4syjfy8jc9ffq0nTXEunXrzOrVq+3dytu5t7ePHz+u8xk89NBD5sMPPxyUl66c3/avfvUrs3z5cl0BQpbP/MM//EPz//7f/9OlP0W655L5KGSCShldUFJSYlatWmXOnTuneZ9//rl5/PHHNcAg55bPoQQGhIyskONltQkhwZcNGza4q1ds375db+UYzXOEicBduML9jwMAAAB8hN3Rw1DSUZJOmKx+4Cw/6Ec6xzK8fd++fXZWQYjisyhBHPmbnj171s5S0smWgENVVZVOjphvZETBE088Ye8uSATuwhf+fxwAAABgiaKjh8Hkm2rpKKULODikcyyTCra1tdlZiRfVZ7GpqUn/pvX19aajo0P3dXZ2msbGRr1lQUY45GPAAf8nrMCd3D7j3BIyGmGdJ9ei+Y8DAAAAPKLq6OH/VFdXj2gmf+kc19XV2bvd4fSvvfaarvSwdOlSXb7QmyfDzhctWqT7ZMLBTZs2uUPlt23bZo4ePeoe57VixQr33DLEX1YikDkGZAnEY8eOucc9//zznlLhivKz2N7ern9TZ6JEmRSxtrbWdw4H5J+wAnfeW1JGI6zz5Fr8fwMAAADkvSQ0nPOd3IfvDAXPRFdXl3aKbU5HR24H2LNnj6Z/9KMfDcqTYedOIGLHjh26zzsp4O7du83DDz9s7rjjDnPmzBk9Tn7KtqxSsGDBAnPw4EFdiUC+NZYy06dPH/Qaogo88FlEKmEE7pz/EW/AQAJzmzdv1v/RadOmmS1btug+8cknn2gAT+aouOuuu3TeC1lWdaTnyWf8xwEAACBydPSiV1xcbPr7++3dKcmEfTLKwOZ0cnp6etwlE++7775Bec4qBGLGjBm6T5Y/lDKSnjNnjtm/f7+mn3zyST1OJgeUbbndQJw6dUpHSMjqA7Jflmp0OM8TReCBzyJSCTtw59i5c6duy3KpBw4c0LSMCBIPPvigbktQ7t1339W0BOVGep58xn8cAAAAIkdHbyi5dcHpVITxkE67dPozJd+mytKJNud88g2qPCQ9bty4QXkDAwPu8RLssI+fMGGC+eabb3T4uXyD+9lnn+lPuQXj2rVrOipCjpPbL06ePOme1+FsS9DhzjvvHPK7juYhf3fAT9iBO0dlZaVuy+ggmddD0jNnztQ8CXTIttxiJIE6+f9wjOQ8+YyrPwAAACLnbTjjd8L+m8hyfjK7fqbk29I1a9bYu92OzhdffOGOdHBufbA7QcKZv0BGOpw/f17TcguFeO6553RbvrmVn88++6zulwCEbMtyk/KwzytpRjlgOGEG7qRDP2XKlFADdw4JTNjPV1RUpHmyNKfMbeLsl8Ccc4vHSM6Tz/ivAwAAQOS8DWc/MnGbNL7lm29Zjk6OLysr0450Q0OD6evrs4vE3nB/k5GSv5NfEMGPLOE4a9Ys3wkOnc6MzOMgs/NL+qmnnhqU57V161bd553TQdJCOnAySsLpHH3++ee6X4aky77jx4+bXbt2DTlvFAEHYb92xFvY72fYgTuH83mXAJsfmdvkrbfe0uU45TgJPIiRnidfhfsuAQAAAD7SdQ56e3t1mTqZNV4mKHTuqZaf0gGQhrgEIlpbW62S8ZbubxKEdETk7yQTMw5HJomUJRz9OB2dF1980Z3YTt4jb56XBDA2bNjgrl6xfft2c/v2bTd/7dq1WuaJJ55w9x05ckSHlUtgyZnrwT5vFKJ6jkIMmuWDsN/PsAJ3d999t742Z+4Tb2DuxIkTmnaWwpTrnmy//fbb5tNPP9W0zHMy0vPks3DfJQAAAMBHqs6BdNYk4LBx48a0y9RJR1qG8cs3737s9eyz1YkdjShenwRm5O8ky/n5kY6SBByqqqr0nnA/cfjbBRXF71WoQbN8EPb7GVbg7o033jAlJSUasBMy94ME1yQwJ/tXrVplzp07p3ky+ufxxx/XAIPcdiSfJQk+jPQ8+SzcdwkAAADwkapz0NzcrJ21dAEHh3SkZWLCtrY2OyuWHeWoXm9TU5P+nWQ5v46ODt3X2dmpq0bMnj1bO0qpAg4ijn/LTIX9e+Vz0Mw5hzzGjBmj8wb84Ac/cEetJMFo/0Z+wgjcYbDw3yUAAADAkqpzUF1d7U6algnpSNfV1Q3a5+1cOc/jl37ttdd04rmlS5fq7O9CVluQZRudWwNk+Tlv5zGquQVEqr9JGNrb2/Xv5EzyKPeC19bW+g4FLyRh/83zOWjmPaesJPK3f/u3up3q2/k4Cvtv5hht4A6DRfMuAQAAAB6pOgdyX78zHD0TXV1d2oG22Z02v6CDfDu5Z88eTcskiWLHjh267Z0Ecffu3YPOE1XgIdXfBNEJ+2+ez0Ez7znEb37zG92WeTq8+TIPxaJFi1Ke7+jRo+5xXitWrHBf1/Lly3UkhayuIEs/Hjt2zD0uqv8fEfb76UXgLjzRvUsAAADA/0rVOSguLjb9/f327pTknmbp2NjsDpZfp01WUnCWgLzvvvs0b8aMGbotyz1KvqTnzJkz5DxRdJxS/U0QnbD/5vkcNLPPKa9TtiU44M2XeSicIEaq8z388MPmjjvuMGfOnNHj5Kdsy9KoshzqwYMHdQUGuY1EyjhLrDrPE8X/j/D+fshfvEsAAACInHxD63RyvI+xY8dqZz9T3d3dpqKiwt49pIPl3XbS8i2uPCQtyzgKCXrYeRMmTBhyHqfTdOeddw75HYI+pNOG7JK/e5jyOWjmPcdvf/tbHcEg287qDE6+szJCuvPt379f008++aQe56w4IrcbiFOnTun5ZdUF2S//1w7neaIIPDi/H/Ib7xIAAAByRpYUlBn+M7V3717fJe28HSx720l/8cUXbqfN+SbWGTotnazz589rWr699Z4nis6SoMOUfamCX0EelZWVZsqUKXkbNPO+VplIUm6Z+Iu/+As3yODkDQwM/O5J05xP5oSQOQ5kdYXPPvtMf8r5rl27pqMi5Di5/eLkyZODXrv3eeT/KMygnTwI3MUDVzoAAADkTENDg28QwY/MGj9r1izfe6rt9eydTok3LUPSZfUAST/11FOa51333hlOLmlHVAEH4bw+xFc+B83sc9r88tOd77nnntNtuZ1Cfj777LO6XwIQsi3LTcrDPq+ko/o/sl8/8hPvEgAAAHJGOinl5eV6L/hw5J72VDPv2+vZezs+TvrFF1/USfTkGGfZQAlkbNiwwZ04b/v27eb27dvueaMUVYdJJhI8dOiQfvMsf1t5nrKyMu0gS5Cnr6/PLoKA8jlo5j2HH7/8dOeTER0ywkL2FRUVmc8//1z3yxwVsu/48eNm165dQ84bVcBB2K8f+Yl3CQAAADnV2tqq37DKkoJ+pLMmAYeqqqpAy9TZnaB8EcVrkmDKkiVLdBlHmSDQmeRQfso38jU1NRqIkL85Ri+fg2bDfe798tOdT6xdu1bLPPHEE+6+I0eO6ISaEthy5nqwzxuVqJ6HwF24onmXAAAAgBFoamrSe8ZlScGOjg7d19nZqRPVzZ49WztrQQIOIpudoJEI+zVJR0kCDhs3bnSXTfQjHWQJ8si35n7km/jFixfbuzMW9O/tLRf0HLlQqEGzfBDF34XAXfjCf5cAAACAANrb201dXZ17X7kM266trfUdjp4EYXeYmpubtaOULuDgkA6yBHna2trsrFF3coOWj2vQQRRi0CwfhP13CStwZ8vGZ3skwUL72KhekyO6MwMAAABIKexGfnV1tWlpabF3pyQdZAnyeDmdD79Okgw1X7Roke7r6uoyy5cvN5MmTdIlIOfPn2+OHTs26HjpcMuEhzIkXSYmzLScN3306FHz3e9+Vzvu//Iv/6J5sqqCLM/o3AKwbdu2tB3EbCm0oFk+CPt/KKzAnc372Y7KSJ5jJMeGIXvPBAAAAMAVdqNf7qt3hoJnQgIA0jG22R0SZ1uGml+6dEn3yQoGBw8eNNevX9dvfSXfWVHBOV4mO9yzZ4+mZS6ATMt503/1V39l/vVf/1XTzioKO3bs0G3vZIe7d+/WPBQW7+c0DGEE7oQE2STYJp9tCb75fbbFJ598ooE8WQHEma9DllUVElzbvHmz/l9PmzbNbNmyRfd5z+EEAp1t77lTBfj8jvVuyzm9VqxYoftfe+013/NlItx3CQAAAEBGnAZ/WIqLi01/f7+9O6UbN25o58Hm7Yx4t52VFRynTp3SEQfz5s3T/LFjxw46XjpezhKP0mnKtJw3LbckDAwMaFpWTBAzZsxwzy8rKkh6zpw57vlROLyf0zCEFbhzJtyUJVLtyTW96QcffFDTZ86cMe+++66mJTAndu7c6Z7jwIEDmpZRPd5zeAOB3vOKTAN83u2HH37Y3HHHHfp6hPyUbQn4pTvfcMJ9lwAAAABkZPLkyW5jP4yHdN6lE54p+Ua1oqLC3u2ez96Wzr9DRhnIPvlW9OTJk4PKeI+Xb2YlLUstZlrOTtvbElyRtJzbOf+ECRPcY1E4vJ+RMIQVuJMgm7y2y5cva3As1WdbghySllED+/fvN9euXXPPUVlZqXkSVJDgm6Rnzpw56BzeQKD3vI5MAnzebXkN8vPJJ5/U/U7AREZrpDvfcMJ9lwAAAADkhAznltn1MyXfoK5Zs8benbJD4iXDwWWfLBkpD+8xTlo6W/+/vbvFVRwKwzi+AAyKgIYVsANAIrAIHAZHcARBgkKToNBIAgaHYg0EQYKChLADHJ08b3KYzpnetpkpCXfm/0tueNtbThCtOE/PhzpMqt0b0TTf82v/2K2ZoPbv97vVbuoF/i9ZBnfq5BcKhUyCO4VsalPBmxupoz8J19qWU9MV3DmtU+KmdyjM8H+jG+3jjsNBYLhdSRvwhY8fj4etU6Hn9HK52Kd+k8KQuPaSpLsKAAAAwEebzWaRIUIUbeNYLpcjFznM5/PWmXBvUaM6FxpSrnO73S6YTqeRHZrBYGCr+6vWG9O03/Nr/3g0GlkdXtNBNfC3sgruFETovlTopukacfe2pitsNhvbilPn1ckX96wonPP5bUSdSxvw+cfj8dhqTafQ53A4TGwvSbqrAAAAAHw0dQRKpZLNt07S6/VsG8coy+UyyOVytqidRHUu1uu1DQ0vFotfzllXO3prWq/XbW2HtN/za/9YgUm/33/tXjGZTILn8/m6FvhTWQV3er50v87nc7tXv7q3tVOG6u12GxwOB6s1dUHC4dp+v7fabXPpPx/ih4VxAZ9/bfh/GunhRmpoZMX1ek1sL0m6qwAAAAB8vNVqZdMPtJ1fFHWU1CGqVqs2TxzAT1kFdxrh0Gg0bPqHgodwBz1cq0PfarUsBNBIglqtZuGDaL0IBXMK1xQCNpvN4Ha7/daG44eFcQGff63fnlsIs91uv87FtZck3VUAAAAAvoXFYmEjDLSd3+l0snPn89kWg6tUKtZRInAAohHcZY/QAQAAAPjHHI/HoNvtvhZd1NDoTqcTORQcwK8I7rJF6AAAAAAAQAjBXXYIHQAAAAAAwFsQOgAAAAAAgLcgdAAAAAAAAG9B6AAAAAAAAN7iBy5GW/8gZmUgAAAAAElFTkSuQmCC;" vertex="1" parent="1">
          <mxGeometry x="10" y="230" width="1053" height="323" as="geometry" />
        </mxCell>
      </root>
    </mxGraphModel>
  </diagram>
</mxfile>
